<svg id="Layer_1" data-name="Layer 1" xmlns="http://www.w3.org/2000/svg" xmlns:xlink="http://www.w3.org/1999/xlink" viewBox="0 0 268.99 78.69"><defs><style>.cls-1{fill:#ffd200;}.cls-2{fill:url(#radial-gradient);}.cls-3{fill:url(#radial-gradient-2);}.cls-4{fill:url(#radial-gradient-3);}.cls-5{fill:url(#radial-gradient-4);}.cls-6{fill:url(#radial-gradient-5);}.cls-7{fill:url(#radial-gradient-6);}.cls-8{fill:url(#radial-gradient-7);}.cls-9{fill:url(#radial-gradient-8);}.cls-10{fill:url(#radial-gradient-9);}.cls-11{fill:url(#radial-gradient-10);}.cls-12{fill:url(#radial-gradient-11);}.cls-13{fill:url(#radial-gradient-12);}.cls-14{fill:url(#radial-gradient-13);}.cls-15{fill:url(#radial-gradient-14);}.cls-16{fill:url(#radial-gradient-15);}.cls-17{fill:url(#radial-gradient-16);}.cls-18{fill:url(#radial-gradient-17);}.cls-19{fill:url(#radial-gradient-18);}.cls-20{fill:url(#radial-gradient-19);}.cls-21{fill:url(#radial-gradient-20);}.cls-22{fill:#ec2127;}.cls-23{fill:#635a57;}.cls-24{fill:#ed1c24;}</style><radialGradient id="radial-gradient" cx="142.96" cy="112.16" r="5.84" gradientTransform="translate(-48.57 -43.06) scale(0.88)" gradientUnits="userSpaceOnUse"><stop offset="0" stop-color="#fbad18"/><stop offset="0.14" stop-color="#faa119"/><stop offset="0.39" stop-color="#f77f1c"/><stop offset="0.73" stop-color="#f14a20"/><stop offset="1" stop-color="#ed1c24"/></radialGradient><radialGradient id="radial-gradient-2" cx="124.61" cy="74.91" r="10.91" xlink:href="#radial-gradient"/><radialGradient id="radial-gradient-3" cx="134.55" cy="83.11" r="9.97" xlink:href="#radial-gradient"/><radialGradient id="radial-gradient-4" cx="138.11" cy="88.24" r="9.4" xlink:href="#radial-gradient"/><radialGradient id="radial-gradient-5" cx="143.57" cy="105.79" r="6.37" xlink:href="#radial-gradient"/><radialGradient id="radial-gradient-6" cx="130.22" cy="78.74" r="10.42" xlink:href="#radial-gradient"/><radialGradient id="radial-gradient-7" cx="143.09" cy="98.96" r="7.12" xlink:href="#radial-gradient"/><radialGradient id="radial-gradient-8" cx="141.35" cy="92.93" r="8.05" xlink:href="#radial-gradient"/><radialGradient id="radial-gradient-9" cx="110.75" cy="71.06" r="10.76" xlink:href="#radial-gradient"/><radialGradient id="radial-gradient-10" cx="118.12" cy="71.65" r="10.79" xlink:href="#radial-gradient"/><radialGradient id="radial-gradient-11" cx="71.12" cy="112.17" r="5.83" xlink:href="#radial-gradient"/><radialGradient id="radial-gradient-12" cx="89.47" cy="74.91" r="10.91" xlink:href="#radial-gradient"/><radialGradient id="radial-gradient-13" cx="79.53" cy="83.11" r="9.97" xlink:href="#radial-gradient"/><radialGradient id="radial-gradient-14" cx="75.98" cy="88.25" r="9.4" xlink:href="#radial-gradient"/><radialGradient id="radial-gradient-15" cx="70.51" cy="105.79" r="6.36" xlink:href="#radial-gradient"/><radialGradient id="radial-gradient-16" cx="83.87" cy="78.74" r="10.42" xlink:href="#radial-gradient"/><radialGradient id="radial-gradient-17" cx="70.99" cy="98.96" r="7.12" xlink:href="#radial-gradient"/><radialGradient id="radial-gradient-18" cx="72.73" cy="92.93" r="8.04" xlink:href="#radial-gradient"/><radialGradient id="radial-gradient-19" cx="103.2" cy="71.06" r="10.76" xlink:href="#radial-gradient"/><radialGradient id="radial-gradient-20" cx="95.84" cy="71.67" r="10.77" xlink:href="#radial-gradient"/></defs><title>logo</title><circle class="cls-1" cx="39.35" cy="39.35" r="39.35"/><path class="cls-2" d="M70.19,55.1s-.68.46-.68.92.92.69.92.69L83,56.13c.25-.87.46-1.74.65-2.63Z" transform="translate(-5.77 -5.93)"/><path class="cls-3" d="M54.21,34.1c.23.23.92,0,.92,0s11.18-20,12.1-21.37c-1-.69-2.07-1.34-3.15-1.93L53.76,33A3.91,3.91,0,0,0,54.21,34.1Z" transform="translate(-5.77 -5.93)"/><path class="cls-4" d="M61.06,38.67c.24.23.91,0,.91,0L77.54,23c-.57-.82-1.17-1.62-1.79-2.4C68.92,28.54,60.84,38,60.84,38A.86.86,0,0,0,61.06,38.67Z" transform="translate(-5.77 -5.93)"/><path class="cls-5" d="M64.26,41.86,81,29.18c-.42-.92-.87-1.83-1.34-2.71l-16.11,14Z" transform="translate(-5.77 -5.93)"/><path class="cls-6" d="M69.74,51.67c0,.46.92.69.92.69l13.55-2.54c.12-1,.2-2.08.23-3.13L70.19,50.76A1.6,1.6,0,0,0,69.74,51.67Z" transform="translate(-5.77 -5.93)"/><path class="cls-7" d="M57.64,35a3.08,3.08,0,0,0,.46.91,1.14,1.14,0,0,0,.68.22L73.16,17.68c-.73-.74-1.49-1.45-2.27-2.13C70.58,15.94,57.64,35,57.64,35Z" transform="translate(-5.77 -5.93)"/><path class="cls-8" d="M69.06,47.54c.23.46,1.37.23,1.37.23l14-5.1q-.11-1.72-.37-3.39l-15,6.89A2.6,2.6,0,0,0,69.06,47.54Z" transform="translate(-5.77 -5.93)"/><path class="cls-9" d="M67.15,43.83c.22.23.91.23.91.23l15.19-8.54q-.4-1.55-.91-3L67.15,42.92S66.92,43.61,67.15,43.83Z" transform="translate(-5.77 -5.93)"/><path class="cls-10" d="M46.91,32.27a3.35,3.35,0,0,0,.92-.45q.73-7,1.46-13.91c.41-3.86.81-7.76,1.22-11.62C49.39,6.14,48.28,6,47.14,6l-.92,25.84S46.68,32.27,46.91,32.27Z" transform="translate(-5.77 -5.93)"/><path class="cls-11" d="M50.56,32a3.3,3.3,0,0,0,.91-.46L59.75,8.74a35.62,35.62,0,0,0-4.51-1.5L49.87,31.36S50.33,32,50.56,32Z" transform="translate(-5.77 -5.93)"/><path class="cls-12" d="M20,55.1s.68.46.68.92-.92.69-.92.69L7.29,56.13c-.25-.87-.46-1.73-.65-2.62Z" transform="translate(-5.77 -5.93)"/><path class="cls-13" d="M36,34.1c-.23.23-.92,0-.92,0S23.92,14.13,23,12.73q1.52-1,3.15-1.93L36.47,33A3.9,3.9,0,0,1,36,34.1Z" transform="translate(-5.77 -5.93)"/><path class="cls-14" d="M29.17,38.67c-.24.23-.91,0-.91,0L12.69,23c.57-.82,1.17-1.62,1.79-2.4,6.83,8,14.9,17.4,14.9,17.4A.86.86,0,0,1,29.17,38.67Z" transform="translate(-5.77 -5.93)"/><path class="cls-15" d="M26,41.86,9.21,29.18c.42-.92.86-1.82,1.34-2.71l16.11,14Z" transform="translate(-5.77 -5.93)"/><path class="cls-16" d="M20.49,51.67c0,.46-.92.69-.92.69L6,49.82c-.12-1-.2-2.08-.23-3.13L20,50.76A1.6,1.6,0,0,1,20.49,51.67Z" transform="translate(-5.77 -5.93)"/><path class="cls-17" d="M32.59,35a3.08,3.08,0,0,1-.46.91,1.15,1.15,0,0,1-.68.22L17.08,17.68c.73-.74,1.48-1.45,2.27-2.13C19.65,15.94,32.59,35,32.59,35Z" transform="translate(-5.77 -5.93)"/><path class="cls-18" d="M21.17,47.54c-.23.46-1.37.23-1.37.23L5.86,42.67c.07-1.15.2-2.28.37-3.4l14.94,6.89A2.59,2.59,0,0,1,21.17,47.54Z" transform="translate(-5.77 -5.93)"/><path class="cls-19" d="M23.08,43.83c-.22.23-.91.23-.91.23L7,35.52c.26-1,.56-2,.91-3L23.08,42.92S23.31,43.61,23.08,43.83Z" transform="translate(-5.77 -5.93)"/><path class="cls-20" d="M43.2,32.27a3.35,3.35,0,0,1-.92-.45q-.73-7-1.46-13.91c-.41-3.86-.81-7.74-1.22-11.6C40.72,6.16,41.84,6,43,6l.92,25.83S43.44,32.27,43.2,32.27Z" transform="translate(-5.77 -5.93)"/><path class="cls-21" d="M39.55,32a3.31,3.31,0,0,1-.91-.46L30.38,8.79a34.32,34.32,0,0,1,4.5-1.51l5.36,24.09S39.78,32,39.55,32Z" transform="translate(-5.77 -5.93)"/><path class="cls-22" d="M58.9,65.72c0-1.32,1.37-3.57,1.92-3.58s.85.68.86,1.16c0,1.31-.47,3.68-1.78,3.71C59.41,67,58.91,66.22,58.9,65.72ZM50.1,30.44c-1.75-.46-3.22,1.51-5,1.55s-2.61-1.51-4.27-1.55c-3.56-.09-3.61,1.66-5.46,3.36-1.42,1.3-4.11,3.54-4.55,5.56-.31,1.33.9,3.89-.85,3.69-1-.11-1.23-4.78-5-4.52-2.26.15-7,5.48-7,14,0,10.17,2.57,12.79,4.95,19.91.72,2.16,1.29,5,2.79,5.13,2.07.18,1.53-7.83,2.79-7.83.48,0,.69.31,1.17.3.69,0,.52-.9,1.21-.92s1.89,2.63,3.35,2.6c.48,0,1-.51,1.51-.66,2-.39,2.59,4.11,4.6,4.06.28,0,.83-.62,1.11-.63.83,0,1.16,2.41,3.17,2.37s3-3.34,4.06-3.36c.63,0,1.09.46,1.78.3s1.16-1.07,1.78-1.22,1.54.45,2.23.44c1,0,2.69-3.34,3.53-3.36s.65,1,1.34,1c.34,0,.89-.6,1.23-.61,1,0,1.14,3.73,1.31,4.25.57,1.81,1.41,3.27,2.32,3.41,1.31.2,2-3.39,2.55-5.06,2.33-7.28,5.55-12,5.33-22-.09-4-2.73-12.07-7.52-12.07-2.87,0-3.2,5-5,4.52-2.08-.49-.24-4.91-2-6.79C54.6,33.23,52.8,31.15,50.1,30.44ZM53.66,65a2.5,2.5,0,0,1,.81-.85c.35-.21.85.33,1.19.11.35,0,.47-.64.82-.65a1,1,0,0,1,.85.61c.22.48-.33.84-.32,1.33,0,.7-.19,1.23-.18,1.73a2.8,2.8,0,0,1-2,2.07c-.84,0-1.06-1-1.09-2.05,0-.48-.51-.83-.52-1.31S53.53,65.36,53.66,65Zm-6.21,4.8c-.51-1.31.69-3.46,1.19-3.68.71-.18,3.26,1.08,3.28,1.91,0,1.53-.9,2.87-3.61,2.93C47.83,71,47.67,70.29,47.45,69.8Zm-5.54-2.72c0-.48.32-1.19.8-1.2a3.36,3.36,0,0,1,2.88,1.6,6.27,6.27,0,0,1-.29,2.23c-.12,1,.07,3-.91,3a4.57,4.57,0,0,1-2-1.48C42,70.75,41.94,68.26,41.91,67.09Zm-5-.37c.17-.82.66-1.82,1.49-1.84s1.49,1.28,1.51,2.11c0,1.18-.07,3-.91,3S36.64,68,36.9,66.71Zm-3.17,1.19c-.62,0-4.26-1.29-3.69-3.45.13-.47,1.08-1.64,1.64-1.65.83,0,1,1.5,2,1.48.35,0,.55-.35.83-.16a1.07,1.07,0,0,1,.72.82C35.22,65.78,34.77,67.88,33.73,67.91Zm-4.94-5.05A1.72,1.72,0,0,1,27,61.06c0-1.11.39-3,1.5-3a1.82,1.82,0,0,1,1.73,1.53C30.3,60.79,30,62.82,28.79,62.85ZM22,56.29c.23-.37.69-1.11,1-.56.52.85,2.2,2.41,2.21,2.9a21.58,21.58,0,0,1,0,2.88c0,1.53,2,2.76,1.71,4.41-.1.58-.69,1.48-1,2.82-.84,3.75-1.41,1.56-1.68.66-.47-1.57-1.09-3.66-1.26-4.5C22.4,61.65,20.48,58.84,22,56.29Zm4.28.28a1.47,1.47,0,0,1-1.09-1.37c.1-.49,2.11-1.71,3.33-4.11.17-.33.62-.28.75-.26,1.65.28,2.44,4,3.66,3.93.49,0,1.05-.38,1.53-.4,1.39,0,6,5.5,10.06,5.51,5.21,0,8.49-5.44,10.51-5.48,1,0,1,.34,2.07.32,1.32,0,3.63-2.42,4.15-4.31.44-1.67-.41-4.41-.37-4.71a1,1,0,0,1,.35-.66.48.48,0,0,1,.36,0c1.23.74,1,4.07,2.85,4s-.64-5.61,1.17-5.65c2,0,3,4.38,3,6.73,0,2.15-.19,6.67-1.86,6.71-1.45,0-1-6.65-2.93-6.6s-.83,9.33-3.47,9.39c-1,0-1.09-2.13-2.07-2.11-1.53-.11-.59,4-2.06,3.86-.83,0-1.21-1.43-2-1.61-1.81-.24-1.92,4.2-3.59,4.24-1,0-1-2.27-2.06-2.24-1.46,0-.91,3.15-2.57,3.18-.83,0-.87-1.92-1.86-2.25s-1.84,1.5-2.81,1.38c-1.19-.12-1.1-2.48-2.21-2.59-.84-.19-1.51.87-2.21.68-.28-.13-.84-.33-1.12-.46-.56-.13-1.17.37-1.67,0a.77.77,0,0,1-.36-.68c-.23-.63.8-1.34.79-2,0-.35-.39-1.66-1.08-1.64-.27,0-1.39.46-1.67.47-1.39,0-1.45-2.12-3-2.08C27.89,55.89,27.16,56.55,26.32,56.57Zm-4.49-6.13c-.25-.13-.26-.13-.33-.63C21.14,47.29,23,42.43,25,42.25c1-.09,2.76,1.78,2.94,3.09s.44,2,.51,2.91a1.43,1.43,0,0,1-1,1.57C26,50.69,24.88,53,24,53c-.48,0-.56-1.15-.39-1.66.11-.32,1.94-2.68,1.82-4.36a1.8,1.8,0,0,0-.58-1.17c-.28-.13-.52.24-.66.51C23.72,47.72,22.29,50.68,21.83,50.44Zm12.61-2.15c.37.83.19,2.64-.29,2.72s-3.84-1.23-3.53-2.77a2.21,2.21,0,0,1,1.28-1.7A2.69,2.69,0,0,1,34.44,48.29Zm-.21-4.5c0,.48-.67,1-1.16,1a1.36,1.36,0,0,1-1-.95c0-.49.61-.85,1.09-.86A1,1,0,0,1,34.23,43.79Zm1.06-5.24a1.63,1.63,0,0,1,1.48,1.15c.23.83-1.27,2-2.11,1.71a1.33,1.33,0,0,1-1-1.15C33.44,39.44,34.46,38.58,35.29,38.56ZM56.83,48.62c.34-.35.46-1.19.95-1.41,1.17-.3,1.59,2.82.78,3.88a2.77,2.77,0,0,1-2.14,1A2.09,2.09,0,0,1,54.53,51C54.15,50,56.16,49.47,56.83,48.62Zm-20-.94c-.14-6,1.22-10.43,8.23-10.46,5.46,0,7.35,4.14,7.25,10.45-.07,4.39-1.58,9.06-7.4,9.89a5.63,5.63,0,0,1-1.29-.09C38.48,56.32,36.91,51.71,36.81,47.69ZM49.14,34.45c.33-.7,1.17-.58,1.86-.39s1.82.44,1.84,1.13-1.16,1.14-1.78,1.15C50,36.37,48.88,35.28,49.14,34.45Zm4.34,7c0-1,.43-2.3,1.48-2.32s1.49,1.63,1.51,2.6-.09,2-.92,2.17C54.58,44.3,53.5,42.52,53.47,41.48Zm-15.6-5.26c-.86-1.17,1.6-2.89,2.92-2.78.7.2,1.67.31,1.69,1,.23.83-1.15,1.2-1.76,1.49C39.89,36.31,38.38,37,37.87,36.21ZM63.26,69c-.21-9.37.95-10,2.62-10.06,1.32,0,1.68.45,1.69,1.14.05,2.29-1.68,5.66-2.45,8.53-.31,1.19-.48,3.48-1,3.49S63.29,70.14,63.26,69ZM44.72,52.59a10.21,10.21,0,0,0-3,1.13s2.09,1.38,3.07,1.36a6.46,6.46,0,0,0,2.61-1.37A6.75,6.75,0,0,0,44.72,52.59ZM47.88,43c-1,0-2.67,1.73-2.67,1.73s1.57,1.91,2.54,1.89c1.18,0,2.69-.9,2.67-2S48.86,43,47.88,43Zm-6.18.14c-1.18-.18-2.13.68-3.15,1.74.85,1,1.92,1.9,2.74,1.88,1.11,0,2.61-1.52,2.23-2.55C43.39,43.59,42.34,43.26,41.71,43.13Zm4.86,7.7a1.16,1.16,0,0,0-.7-1.17c-.35-.2-.83.3-1.31.31s-.86-.45-1.35-.31-1,.53-1,1.08c-.12.84,1.21.92,2,1.11S46.45,51.67,46.57,50.84Z" transform="translate(-5.77 -5.93)"/><path class="cls-23" d="M115.56,40a6,6,0,0,1-.41,2.23A5.14,5.14,0,0,1,114,44a4.94,4.94,0,0,1-1.76,1.12,6.39,6.39,0,0,1-2.28.39h-7.62V24.91H109a8.51,8.51,0,0,1,2.42.28,4.41,4.41,0,0,1,1.7,1,5.32,5.32,0,0,1,1.19,1.7,5.06,5.06,0,0,1,.44,2.08,4.75,4.75,0,0,1-.94,2.93,5.24,5.24,0,0,1-2.59,1.81,5.26,5.26,0,0,1,3.18,1.78A5.39,5.39,0,0,1,115.56,40Zm-3.5-9.83a3.21,3.21,0,0,0-.84-2.37,2,2,0,0,0-1-.59,7.49,7.49,0,0,0-1.78-.16h-3.53v6.68h3.34a8.58,8.58,0,0,0,1,0,3.63,3.63,0,0,0,.73-.16,2.57,2.57,0,0,0,.59-.28,3.11,3.11,0,0,0,.51-.42A3.58,3.58,0,0,0,112.07,30.18Zm.78,9.64A3.45,3.45,0,0,0,111.71,37a4.91,4.91,0,0,0-3.26-1h-3.53v7.27h3.53a9.35,9.35,0,0,0,2.09-.17,3.06,3.06,0,0,0,1.22-.61,3,3,0,0,0,.8-1.19A4.2,4.2,0,0,0,112.85,39.82Z" transform="translate(-5.77 -5.93)"/><path class="cls-23" d="M135.63,45.5l-5.68-8.83H127.2V45.5h-2.56V24.91h6.27a15.56,15.56,0,0,1,1.65.08,7.07,7.07,0,0,1,1.28.25,4.22,4.22,0,0,1,1,.47,5.26,5.26,0,0,1,.91.73A5.13,5.13,0,0,1,137,28.21a5.85,5.85,0,0,1,.44,2.25,6,6,0,0,1-.47,2.34,5.5,5.5,0,0,1-1.34,1.94,5.23,5.23,0,0,1-1.3,1,7.65,7.65,0,0,1-1.83.59l6.09,9.21Zm-1-15a3.43,3.43,0,0,0-1.12-2.84,2.79,2.79,0,0,0-.48-.3,3,3,0,0,0-.56-.19,4.13,4.13,0,0,0-.8-.09l-1.16,0H127.2v7.46h3.34Q134.66,34.52,134.66,30.49Z" transform="translate(-5.77 -5.93)"/><path class="cls-23" d="M146.71,45.5V24.91h2.56V45.5Z" transform="translate(-5.77 -5.93)"/><path class="cls-23" d="M159.91,45.5V24.91h2.56V43.35h9.21V45.5Z" transform="translate(-5.77 -5.93)"/><path class="cls-23" d="M179.2,45.5V24.91h2.56V43.35H191V45.5Z" transform="translate(-5.77 -5.93)"/><path class="cls-23" d="M198.49,45.5V24.91H201V45.5Z" transform="translate(-5.77 -5.93)"/><path class="cls-23" d="M223.86,45.5l-2.12-6.09h-8.33l-2.12,6.09h-2.75l7.68-21.19H219l7.65,21.19Zm-6.27-17.85-3.37,9.43h6.71Z" transform="translate(-5.77 -5.93)"/><path class="cls-23" d="M248,45.69,237.63,29.62c0-.08-.1-.18-.17-.3a4.32,4.32,0,0,1-.23-.42l-.16-.26a1.11,1.11,0,0,1-.09-.2,2.17,2.17,0,0,1-.16-.31q-.06-.16-.16-.47V45.5H234.1V24.91h3.34l10.21,15.7.14.22a1.8,1.8,0,0,1,.14.28l.14.37.23.56a.59.59,0,0,1,0,.14.49.49,0,0,0,.08.17V24.91H251V45.69Z" transform="translate(-5.77 -5.93)"/><path class="cls-23" d="M267.9,27.06V45.5h-2.56V27.06h-6.87V24.91h16.29v2.15Z" transform="translate(-5.77 -5.93)"/><path class="cls-24" d="M109.65,57.44a4.33,4.33,0,0,1-.29,1.63,3.43,3.43,0,0,1-.82,1.22,3.6,3.6,0,0,1-1.29.78,5.07,5.07,0,0,1-1.71.27h-.33l-.35,0-.45,0-.65-.06v4.38h-1.43V54h3.62a5.79,5.79,0,0,1,1.69.2,2.66,2.66,0,0,1,1.13.71,2.85,2.85,0,0,1,.67,1.07A4.27,4.27,0,0,1,109.65,57.44Zm-1.49.09a2.44,2.44,0,0,0-.65-1.8,1.5,1.5,0,0,0-.67-.38,4.31,4.31,0,0,0-1.11-.11h-2V60l.92.09.62,0a4.09,4.09,0,0,0,1.51-.23,2,2,0,0,0,1-.89A2.83,2.83,0,0,0,108.17,57.53Z" transform="translate(-5.77 -5.93)"/><path class="cls-24" d="M120.43,65.58l-3.19-5h-1.54v5h-1.43V54h3.52a8.65,8.65,0,0,1,.93,0,3.9,3.9,0,0,1,.72.14,2.36,2.36,0,0,1,.58.26,3,3,0,0,1,.51.41,2.88,2.88,0,0,1,.67,1,3.28,3.28,0,0,1,.25,1.26,3.39,3.39,0,0,1-.26,1.31,3.09,3.09,0,0,1-.75,1.08,2.89,2.89,0,0,1-.73.54,4.29,4.29,0,0,1-1,.33l3.41,5.16Zm-.54-8.42a1.92,1.92,0,0,0-.63-1.59,1.54,1.54,0,0,0-.27-.17,1.65,1.65,0,0,0-.31-.11,2.27,2.27,0,0,0-.45-.05h-2.52v4.18h1.87A2,2,0,0,0,119.89,57.16Z" transform="translate(-5.77 -5.93)"/><path class="cls-24" d="M137.29,59.8a6.54,6.54,0,0,1-.43,2.41,5.69,5.69,0,0,1-1.21,1.9,5.52,5.52,0,0,1-1.84,1.25,5.91,5.91,0,0,1-2.32.45,6,6,0,0,1-2.33-.45,5.39,5.39,0,0,1-1.84-1.25,5.86,5.86,0,0,1-1.21-1.9,6.81,6.81,0,0,1,0-4.8,5.75,5.75,0,0,1,1.21-1.9,5.44,5.44,0,0,1,1.84-1.24,6,6,0,0,1,2.33-.45,5.91,5.91,0,0,1,2.32.45,5.49,5.49,0,0,1,3,3.14A6.56,6.56,0,0,1,137.29,59.8Zm-1.58,0a5.06,5.06,0,0,0-.33-1.83,4.76,4.76,0,0,0-.91-1.5,4.42,4.42,0,0,0-1.35-1,3.75,3.75,0,0,0-3.27,0,4.42,4.42,0,0,0-1.35,1,4.75,4.75,0,0,0-.91,1.5,5.24,5.24,0,0,0,0,3.67,4.76,4.76,0,0,0,.91,1.5,4.4,4.4,0,0,0,1.35,1,3.74,3.74,0,0,0,3.27,0,4.4,4.4,0,0,0,1.35-1,4.77,4.77,0,0,0,.91-1.5A5.1,5.1,0,0,0,135.71,59.8Z" transform="translate(-5.77 -5.93)"/><path class="cls-24" d="M143.53,66.55q-.09.27-.18.5a4.6,4.6,0,0,1-.22.45c-.08.15-.18.31-.3.48l-.3.45a4.8,4.8,0,0,1-.3.38l-.35.38-.47.46-.93-.79.5-.57.35-.42a3.18,3.18,0,0,0,.25-.34c.06-.1.13-.22.18-.33a5.14,5.14,0,0,0,.39-1.17,7.06,7.06,0,0,0,.14-1.45V54h1.43V65.91Q143.62,66.28,143.53,66.55Z" transform="translate(-5.77 -5.93)"/><path class="cls-24" d="M149.76,65.58V54h6.49v1.21H151.2v3.85h4.18v1.21H151.2v4.08h5.22v1.21Z" transform="translate(-5.77 -5.93)"/><path class="cls-24" d="M169,56a5,5,0,0,0-1.33-.67,5,5,0,0,0-1.5-.21,4.24,4.24,0,0,0-1.7.33,3.83,3.83,0,0,0-1.32.94,4.44,4.44,0,0,0-.87,1.43,5.13,5.13,0,0,0-.31,1.83,5.91,5.91,0,0,0,.31,2,4.31,4.31,0,0,0,.9,1.52,4,4,0,0,0,1.42,1,4.81,4.81,0,0,0,1.85.34,6.93,6.93,0,0,0,1.35-.12,6.82,6.82,0,0,0,1.31-.42l.4,1.12-.46.2-.37.14-.35.11-.38.11a6.92,6.92,0,0,1-.81.15,6.72,6.72,0,0,1-.78,0,6.3,6.3,0,0,1-2.41-.45A5.52,5.52,0,0,1,162,64.11a5.68,5.68,0,0,1-1.22-1.92,6.59,6.59,0,0,1-.44-2.44,6.1,6.1,0,0,1,.45-2.35,5.86,5.86,0,0,1,1.22-1.88,5.66,5.66,0,0,1,1.84-1.25,5.76,5.76,0,0,1,2.3-.46,6.35,6.35,0,0,1,2.17.38,4.67,4.67,0,0,1,.64.28c.17.09.4.24.69.44Z" transform="translate(-5.77 -5.93)"/><path class="cls-24" d="M177.75,55.23V65.58h-1.43V55.23h-3.85V54h9.14v1.21Z" transform="translate(-5.77 -5.93)"/><path class="cls-24" d="M196,55.23V65.58h-1.43V55.23h-3.85V54h9.14v1.21Z" transform="translate(-5.77 -5.93)"/><path class="cls-24" d="M210.29,65.58l-3.18-5h-1.54v5h-1.44V54h3.52a8.64,8.64,0,0,1,.93,0,3.9,3.9,0,0,1,.72.14,2.35,2.35,0,0,1,.58.26,3,3,0,0,1,.51.41,2.9,2.9,0,0,1,.67,1,3.29,3.29,0,0,1,.25,1.26,3.39,3.39,0,0,1-.26,1.31,3.07,3.07,0,0,1-.75,1.08,2.91,2.91,0,0,1-.73.54,4.31,4.31,0,0,1-1,.33l3.41,5.16Zm-.54-8.42a1.92,1.92,0,0,0-.63-1.59,1.53,1.53,0,0,0-.27-.17,1.65,1.65,0,0,0-.32-.11,2.27,2.27,0,0,0-.45-.05h-2.52v4.18h1.87A2,2,0,0,0,209.75,57.16Z" transform="translate(-5.77 -5.93)"/><path class="cls-24" d="M223.4,65.58l-1.19-3.41h-4.67l-1.19,3.41h-1.54l4.31-11.88h1.54l4.29,11.88Zm-3.52-10L218,60.85h3.76Z" transform="translate(-5.77 -5.93)"/><path class="cls-24" d="M236.77,56a5,5,0,0,0-1.33-.67,5,5,0,0,0-1.5-.21,4.24,4.24,0,0,0-1.7.33,3.83,3.83,0,0,0-1.32.94,4.44,4.44,0,0,0-.87,1.43,5.13,5.13,0,0,0-.31,1.83,5.91,5.91,0,0,0,.31,2,4.31,4.31,0,0,0,.9,1.52,4,4,0,0,0,1.42,1,4.81,4.81,0,0,0,1.85.34,6.93,6.93,0,0,0,1.35-.12,6.82,6.82,0,0,0,1.31-.42l.4,1.12-.46.2-.37.14-.35.11-.38.11a6.92,6.92,0,0,1-.81.15,6.72,6.72,0,0,1-.78,0,6.3,6.3,0,0,1-2.41-.45,5.52,5.52,0,0,1-1.88-1.25,5.68,5.68,0,0,1-1.22-1.92,6.59,6.59,0,0,1-.44-2.44,6.1,6.1,0,0,1,.45-2.35,5.86,5.86,0,0,1,1.22-1.88,5.66,5.66,0,0,1,1.84-1.25,5.76,5.76,0,0,1,2.3-.46,6.35,6.35,0,0,1,2.17.38,4.67,4.67,0,0,1,.64.28c.17.09.4.24.69.44Z" transform="translate(-5.77 -5.93)"/><path class="cls-24" d="M242,65.58V54h1.44V65.58Zm6.16,0-4.62-5.83L248.08,54h1.64l-4.51,5.62,4.74,5.93Z" transform="translate(-5.77 -5.93)"/><path class="cls-24" d="M254.24,65.58V54h6.49v1.21h-5.06v3.85h4.18v1.21h-4.18v4.08h5.21v1.21Z" transform="translate(-5.77 -5.93)"/><path class="cls-24" d="M272.05,65.58l-3.18-5h-1.54v5h-1.44V54h3.52a8.64,8.64,0,0,1,.93,0,3.9,3.9,0,0,1,.72.14,2.35,2.35,0,0,1,.58.26,3,3,0,0,1,.51.41,2.9,2.9,0,0,1,.67,1,3.29,3.29,0,0,1,.25,1.26,3.39,3.39,0,0,1-.26,1.31,3.07,3.07,0,0,1-.75,1.08,2.91,2.91,0,0,1-.73.54,4.31,4.31,0,0,1-1,.33l3.41,5.16Zm-.54-8.42a1.92,1.92,0,0,0-.63-1.59,1.53,1.53,0,0,0-.27-.17,1.65,1.65,0,0,0-.32-.11,2.27,2.27,0,0,0-.45-.05h-2.52v4.18h1.87A2,2,0,0,0,271.51,57.16Z" transform="translate(-5.77 -5.93)"/></svg>